<?xml version="1.0" encoding="UTF-8"?><svg version="1.2" baseProfile="tiny-ps" width="1024" height="1024" viewBox="0 0 300 300" xmlns="http://www.w3.org/2000/svg"><title>Sheeraz Kareem</title><g><g fill="#fefefe" transform="matrix(.1 0 0 -.1 0 300)"><path d="M0 1500V0h3000v3000H0V1500z"/></g><g fill="#fcc1ae" transform="matrix(.1 0 0 -.1 0 300)"><path d="M1275 2974c-101-24-152-42-222-76l-81-40-86-64-85-65-66-77-66-77-29-60-28-60-10-75c-6-41-14-131-17-200l-6-125-11-12c-5-7-11-22-14-35-2-13-6-37-10-55l-6-32 82-178 82-178 9-50c5-27 17-97 26-155l18-105 26-25 27-25 21-85 20-85-35-51-35-51-35-106-35-105-159-57-160-58-142-78c-79-43-167-89-195-101L0 405V0h3000v404l-47 44c-73 67-125 89-368 153-66 17-137 40-158 50l-38 20-47 62c-26 34-67 83-90 109l-44 47-46 23c-38 17-125 82-175 128l-8 7 22 79 22 79 23 20c29 26 40 50 49 105 4 24 21 85 38 135l30 90 5 172 4 172 44 17 44 17 31 31c17 17 44 59 61 93l31 63-5 72-5 73-22 64-22 64-64 92c-36 51-82 108-103 127l-38 34-46 20-47 19-22 47-22 47-31 29c-63 59-232 142-257 126l-9-5v19l-67 11c-38 6-81 11-98 10-16-1-75 1-130 4-55 4-109 4-120 1zm790-314 20-9h-22c-12-1-25 4-28 9l-6 10 8-1c4 0 17-4 28-9zM577 1888l-5-13v50l5-12c2-7 2-19 0-25zm666-209c-5-4-19-10-33-14l-25-7 13 13c6 7 12 22 12 33v19l20-18 20-19-7-7zm389 16 5-25h-35l-5 14-5 14 11 11c17 17 24 13 29-14zm-525-11 12-25-22 7c-29 9-29 8-21 28 9 22 17 20 31-10zm660 10 4-11-24-10-24-11 11 24c11 24 27 27 33 8z"/></g><g fill="#eb9a85" transform="matrix(.1 0 0 -.1 0 300)"><path d="M1280 2972c-100-9-263-84-390-178l-85-64-65-76c-74-86-115-157-130-229-6-27-15-119-21-205l-9-155-21-64-21-63 11-39c6-21 15-41 20-44l9-5-4 42-4 43 10-35c5-19 7-41 4-49l-5-15 66-144 67-144 8-76c5-43 16-108 23-146l15-70 25-21 25-22 21-90 21-91-34-50-34-51-32-98c-18-54-36-102-40-106s-83-36-176-71l-169-62-116-65c-64-36-146-78-182-94L1 405 0 203V0h3000v397l-55 52-54 51-45 20c-25 10-129 42-231 71l-187 52-29 25c-16 13-50 52-76 86-25 33-60 76-77 94l-31 34-50 25c-56 29-185 130-185 146 0 5 9 42 21 81l21 71 28 26 28 26 12 59c6 32 25 102 43 154l31 95 3 164c2 90 5 167 8 171 3 5 19 12 37 15l31 7 47 47 47 47 22 57 21 58v93l-25 80c-13 45-34 95-44 111-67 100-131 182-164 209l-37 30-40-2-40-3v11c0 5 6 10 13 10h12l-11 8c-6 4-21 27-34 52-31 62-55 86-133 131-75 44-142 72-172 71-11-1-22 4-26 9l-6 11-124 9c-186 13-231 15-269 11zm359-633 134-13 5-18c2-10 8-18 13-18 4 0 26-18 49-40l40-39v-16c0-8-4-15-10-15-14 0-12-27 3-34l12-5-17-11-18-11v-158l-10-6-10-6v-30c0-17 5-39 11-50l10-20-31 16-31 16-62-11c-34-6-89-15-122-20s-89-14-125-20l-65-11-60 4c-61 4-260 32-325 45l-35 7 3 19c2 11 10 25 18 33l14 14v159h-20v60h20v65l25 19 25 19v37h19c11 0 21 5 23 10l3 10 90 11c50 6 110 14 135 18 50 9 92 7 289-10zm-536 4c-7-2-21-2-30 0l-18 5h60l-12-5zm-83-87c0-2-8-10-17-17l-18-14 14 18c13 16 21 21 21 13zm-403-88-5-13-1 19c-1 11 2 17 5 13 3-3 4-12 1-19zm-20-85-5-18v60l5-12c2-7 2-21 0-30zm363-246c0-2-10-12-22-23l-23-19 19 23c18 21 26 27 26 19zm566-34c-7-7-26 7-26 19v10l15-12c9-7 13-15 11-17zm-69-65c6-7 13-26 17-43 5-24 27-75 43-104 2-2 9 2 18 9l15 12 13-10c6-5 35-16 64-24l51-15 49 4 48 4 42 25 43 25v-21l20 12 20 13 14-20 15-20 1-41v-42l-16-13-15-12 3-35 3-35-13-5-12-4v-87l-19-6-19-6-5-19-5-20h-38l-19-45-18-45-24 22c-12 12-23 18-23 14s-20 5-43 19c-24 14-46 22-49 19-4-3-9 4-13 15-6 19-16 25-37 23-3-1-9 5-12 13l-5 15h29l10 26c6 14 10 40 10 59v33l-17 19c-10 10-17 17-16 15 1-3-2-13-8-23l-10-19h-38l-10 17-9 18-21-19-21-20-33 2c-17 1-60 2-94 3l-63 1v52l-14-20c-8-11-18-32-21-47l-7-26 22-36 22-35h14c8 0 14-4 14-10 0-5-3-10-8-10-4 0-18-10-32-22-25-23-101-64-131-70l-15-3-47 55c-26 30-56 72-67 93-11 20-25 37-30 37h-10v19c0 11-5 23-10 26l-10 6 5 10 6 9h-21v19c0 11-4 23-10 26l-10 6v127l15 12 14 12 61-37 60-37 70-10 70-10 49 26 50 26 7-11 7-11 23 28 23 29 7 45 7 45 11 7c6 4 25 8 42 8h32l9-12zm191-60 15-18h-19c-10 0-29 3-41 6l-23 6v13c0 7 10 19 23 28l22 15 4-17c1-9 10-24 19-33zm-530-11 16-18-29 7c-17 4-33 12-37 18l-7 11 17 18 17 19 4-18c1-11 10-27 19-37zm132 18c0-10-45-35-64-35h-9l16 18c10 10 17 26 17 35v17l20-12c11-7 20-17 20-23zm520 9c0-14-30-34-50-34h-11l15 16c9 8 16 22 16 29v14l15-5c8-4 15-12 15-20zM1468 363c-10-2-28-2-40 0l-23 4h40l40 1-17-5z"/></g><g fill="#9c3138" transform="matrix(.1 0 0 -.1 0 300)"><path d="M1155 2936c-235-85-460-279-524-452l-20-53-11-83c-5-45-10-112-9-148l1-65 14 30 15 30-6-30c-4-16-8-43-11-60-3-16-13-46-23-65s-24-51-30-71l-12-37 15-33 15-34-4 44-4 44 9-9c4-5 11-29 15-53l7-44-11 7-11 7 36-78c20-43 52-114 71-158l36-80 8-75c5-41 15-102 23-135l14-60 1 37c1 20-4 49-9 64-6 15-15 74-21 132l-11 104 11 11 11 11 12-12 12-12 7-124c4-69 13-150 19-181l12-57-7-6-7-7-14 19-14 20v-12c0-6 11-19 24-28l25-16 22-94 21-94-36-52-36-53-31-95c-17-52-37-100-43-106s-58-28-116-49c-179-64-230-86-334-145-56-31-136-73-178-93L0 401V0h3000v397l-50 47-51 47-52 24c-29 13-126 45-217 69-91 25-182 54-204 63l-38 17-75 98-74 98-37 24c-20 13-57 35-82 49-25 15-67 46-94 70l-50 44 23 83 22 82 28 24 28 24 13 62c6 35 26 104 43 153l31 90v167l1 168 53 21 53 22 17 26c9 14 25 34 34 43 10 10 25 35 34 55l17 38 1 70v70l-23 73-24 74-46 63c-25 35-59 82-74 104-16 23-44 53-64 68l-35 27-39-3-39-2v18c-1 10-13 42-28 72l-28 54-54 38c-30 21-78 50-106 64l-51 26-44 5-44 5-6 11-6 10-104 9c-57 4-151 8-209 8h-105l-90-33zm-484-409-12-12 7 18c3 10 9 15 12 12s0-11-7-18zm930-152 29 5v-21l10 6 10 6v-17l39 2c22 1 43 4 48 7s29 1 54-5l44-11 28-24c16-12 26-23 23-23-4 0 7-27 24-60 16-33 30-64 30-71 0-6 9-22 20-36s20-30 20-35v-9l-10 6c-14 9-12-1 7-38l16-32-17 14-17 14 7-28 7-28-12 7-11 7v-9c0-5 7-27 16-48 9-22 25-70 36-109l18-70 7-136 6-136-13-69-13-69-36-69-36-69-48-50-47-50-24-51c-13-28-27-59-30-69l-6-18-10 6-10 6v-31h-30v-35l-9 14-9 14-7-22c-3-11-11-21-16-21h-10l6-10 7-11-12-14c-7-8-10-15-6-15 18 0-44-73-64-75-3 0-10-4-17-8l-12-8-26 17c-14 9-25 20-25 24s-11 20-25 36-25 37-25 46v17l25 13 25 13-18 35-17 35-60 2-60 3-18-14-17-13 6-32c4-17 10-31 15-31s9-8 9-18v-18l-20-17c-11-9-20-23-20-31s-5-18-12-22l-11-7 7 14c4 8-8-3-28-23l-35-37-25 20c-13 10-28 19-33 19-4 0-25 34-45 75l-36 75-6-16-6-15-9 5c-5 3-12 22-15 41-4 19-11 35-16 35s-12 9-15 21c-4 11-9 18-12 16-2-3-17 8-32 24s-30 26-34 23c-3-3-8 9-12 26s-10 29-13 26c-3-4-11 7-18 24l-13 30h-13l-13 1-29 61-28 61-15 81-14 81 7 150 7 150 12 55c7 30 20 72 29 93l16 37h-15c-16 0-20 12-8 24 4 3 8 16 10 28l3 22-25-24-25-24 11 32c6 17 9 37 6 44l-4 13 18 37c11 21 19 45 19 55s18 44 40 76c22 31 40 61 40 65s12 12 28 19l27 11 120 5c66 3 134 10 151 15l31 10 37-13 38-13 14 5 14 5-6 9-5 9h20l-5 18-6 17 15-17c8-10 21-18 30-18h15l6 17 7 16 13-18 13-18 19 19 19 20 18-23 18-23 30 5zm767-185 1-25-9 20c-5 11-8 36-8 55v35l8-30c4-16 8-41 8-55zm-250-639 5-51-19-70c-10-38-21-70-26-70-4 0-7-8-6-17 3-39-3-70-16-89l-14-19-7 6-6 7 15 78c8 44 18 122 21 174l7 95 11 13 10 13 10-10c5-5 12-33 15-60zM1004 773c25-49 95-121 164-169 74-52 101-63 182-74l55-7 80 24c44 14 100 34 125 46l45 22 93 92 92 92v-42c0-23 6-80 14-125l14-84-8-35-8-35-34-35c-18-19-46-42-63-50l-30-16-79-7-79-7-13-18-13-18-73 7c-150 15-259 49-358 113l-55 36-26 37-27 37-11 52c-11 51-16 191-6 191 2 0 11-12 19-27zm1226-469c0-2-9 0-20 6s-20 13-20 16c0 2 9 0 20-6s20-13 20-16zm-578 1547c-45-10-85-18-87-19-3-1-10-2-16-2h-11l6-16 6-15-23 1c-12 1-28 2-34 1l-13-1v-14c0-8 5-16 12-18l11-4-11-31-10-31 14-19 14-18 15 19c16 21 65 56 78 56 5 0-5-12-22-26s-31-32-31-40v-14h32l-5 15-6 14 26 21c14 11 29 20 34 20h8l-6-15-5-16 17-19 18-20h44l16 18c10 10 17 27 17 37v18l20-18 20-18-2-16-3-15 16-4 16-3 7 17 6 17-17 20c-24 26-74 47-115 47h-32l12 12 12 12 38-13c20-7 55-24 76-38l39-25-6 17c-4 9-7 20-7 25 0 4-15 17-32 29l-33 21h85l23-12c12-7 30-19 40-27l17-14 6 6 7 6-17 26c-10 15-38 39-64 56l-46 29-35-1c-20-1-73-9-119-18zm45-127c-3-3-12-4-19-1l-13 5 19 1c11 1 17-2 13-5zm-728 106-45-29-14-26c-19-35-7-41 30-15l31 22 39 5 39 5 38-7 38-8-44-13c-46-14-71-30-71-46v-9l11 7 11 6-11-20-10-19 17-16c9-8 28-18 42-21l25-7-17 11-18 11v17c0 19 18 42 32 42 4 0 8-7 8-15s9-23 20-33l21-19 26 5 26 5 11 28c12 34 17 35 40 10l17-19-18-11-18-10 33-1c39 0 40 5 5 44l-28 30 28-18c38-23 44-14 17 23l-21 31 26 10c14 5 30 10 35 10s12 5 16 12l7 11-13-8-12-8-8 12-7 12-34 5c-19 3-65 12-102 20-38 8-87 14-111 14h-43l-44-30zm241-76c0-2-11-4-25-4h-25v17l25-5c14-2 25-6 25-8zm-93 0c-3-3-12-4-19-1l-13 5 19 1c11 1 17-2 13-5zm-38-7c-2-1-13-9-24-17l-20-15 14 18c7 9 18 17 24 17s8-1 6-3zm609-144c12-2 30-2 40 0l17 5-40-1h-40l23-4zm-388-212c0-11 25-21 53-21h21l-20 15c-21 16-54 20-54 6zm178 2c-9-2-19-11-22-19l-5-14 27 6c15 3 33 8 40 10l13 4-6 10c-6 10-17 11-47 3zm75-30-22-23h13c16 0 39 26 34 37-1 4-13-2-25-14zm-303 3c0-2 8-10 18-17l17-14-14 18c-13 16-21 21-21 13zm187-43c-4-3-30-7-59-8l-53-1-30-20c-17-10-40-28-53-39s-27-20-30-20c-16-1-78-39-85-52-5-7-12-11-16-8-12 7-27-15-33-47l-5-28h7c4 0 10-22 14-50l7-50h9c4 0 16 22 25 49s22 54 28 59l12 11 50-18c28-10 58-21 68-26l17-7v10c0 6-4 14-10 17-5 3-10 12-10 19v12h260v-48l18 5c9 3 37 13 61 22l44 16 7-8c4-4 13-25 19-45 7-20 18-42 26-48l14-12 8 29c4 15 7 52 7 81l-2 52-12 15c-7 8-19 15-27 15s-27 9-42 19c-15 11-33 21-41 23-7 2-21 10-31 18-31 26-44 36-49 37-3 0-22 8-44 17-42 17-59 20-69 9zm6-108 19-14 12 5 13 5 11-13 10-13h-68c-38 0-71 3-75 7l-7 6 29 15c36 19 35 19 56 2zm-193-59c0-2-7-7-16-10l-15-6 6 10c6 10 25 14 25 6zm-158-196v-25l5 13c2 6 2 18 0 25l-5 12v-25zM582 2085v-30l5 18c2 9 2 23 0 30l-5 12v-30z"/></g><g fill="#483642" transform="matrix(.1 0 0 -.1 0 300)"><path d="M1155 2936c-104-37-161-68-260-141l-70-52-72-77-72-77-32-64-31-63-14-94c-8-51-14-122-14-158v-64l9 9c5 6 12 19 15 30 5 21-1-29-10-80-4-16-17-53-30-82l-24-52v-38c0-21 5-45 10-53l10-15-6 43-7 42h20l7-37c3-21 6-44 6-51v-13l-10 6c-5 3 11-38 36-92s57-125 71-158l26-60 7-60 7-60 1 50c1 28-3 67-7 89-11 43-5 66 15 66 23 0 31-31 38-150 4-63 12-137 17-165 6-27 12-61 14-75s14-66 26-117l22-92-36-53-37-53-31-95c-17-52-37-100-43-106s-86-38-177-72l-167-62-97-56c-54-31-135-73-181-95L0 401V0h590c325 0 590 2 590 5s-16 27-35 54c-19 26-35 53-35 59v10l23-5 22-6-37 39c-44 46-58 80-58 138v43l-25 23c-14 13-25 29-25 35 0 7-7 25-14 41-8 16-17 45-19 65s-7 42-12 50c-4 8 13-9 38-37l46-51 58-35c33-19 94-47 136-61l77-27 90-12 90-12v-16c0-8 3-25 6-37l6-22-28 3-28 3-7 19-8 19v-16l-1-16-72 14-73 13-39 28c-49 34-100 61-105 56s77-84 86-84c4 0 16-9 28-20l21-20 90-26 89-25 11-15 11-14 7-80 7-80h22l-8 57c-12 84-10 120 14 197 11 37 21 69 21 70 0 0-21 2-48 4-184 10-359 75-466 171l-29 26-28 60-29 60v66l10-6 9-6 7 26c3 14 4 39 0 55l-5 30h7c4 0 20-20 35-45 39-61 100-122 172-171 71-48 89-54 176-60l65-4 80 28c43 15 99 38 124 51l45 23 83 86 82 85V703l30-31 30-31-7-48c-6-53-23-91-60-141l-24-32-40-20c-21-11-39-22-39-25 0-11 59 19 100 52 25 20 50 41 57 45l12 9-15-53c-7-29-14-72-14-95s-5-64-12-92l-11-50 21-56 22-57V0h1110v397l-50 47-51 47-52 24c-29 13-128 45-222 71-93 25-186 54-206 64l-36 19-71 95-72 96-38 24c-20 13-57 35-82 49-25 15-67 46-94 70l-50 44 22 81 22 81 29 28 28 28 16 74c10 41 15 76 13 78s-12-30-22-73l-18-77-17-21c-24-29-30-18-18 34 6 25 18 110 27 189l17 144 12 4 12 4 11-20c13-26 17-85 7-136l-7-40 20 50 21 50 11 80 11 80-5 107-6 107 55 22 54 22 17 26c9 14 25 34 34 43 26 26 47 84 54 142l5 51-10 30-10 30 5-55 4-55-11 25-11 25 5 44 5 44-16 46c-16 47-21 57-109 184l-52 75-32 23c-32 22-47 27-101 28l-27 1 5 14 5 14-30 60-30 59-53 35c-29 20-77 48-106 63l-52 27-15-6-15-5v7c0 4-12 8-26 9l-27 1-7 12-7 12-104 9c-57 4-151 8-209 8h-105l-90-33zm472 8c-3-3-12-4-19-1l-13 5 19 1c11 1 17-2 13-5zm-537-88c0-2-7-7-16-10l-15-6 6 10c6 10 25 14 25 6zm974-290-5-14 21-7c12-4 19-9 17-12-3-2-14 0-26 6l-20 11 2 19 1 20 8-5c4-3 5-11 2-18zm-1384-24c0-5-7-17-15-28l-15-19 11 28c12 27 19 34 19 19zm827-150 18 3 3 24 4 23 16-34 17-33 25 2c14 2 43-4 65-11l39-14 24 9c13 5 39 9 58 9h35l-6-10-6-10h38l28-24 29-25 3-22c2-13 15-42 29-66s22-43 19-43 6-18 20-39l24-40-10-3-10-3 10-28 11-27h-21l6-20 6-20-15 6-15 6 24-61 25-60 16-93 16-93-5-155-5-155-32-60c-59-113-113-185-139-185-6 0-11-6-11-13s-15-44-34-83l-34-71-16-6-16-6v-31h-38l-13-37c-17-54-38-82-72-99l-29-16-23 6-24 6-22 40c-13 22-26 40-31 40h-8v72l14-5 14-6 6 15c7 18-3 46-23 61l-16 13-49-2-48-2-20-16-20-16 16-16 16-17v-53l-20-25c-11-14-20-32-20-40v-15l-14 5-14 6-22-29-21-28-12 2c-7 1-24 10-39 20l-27 18-24 43c-13 23-27 55-31 70l-7 27-14-18-14-19-6 20c-4 11-11 29-18 40-6 11-16 31-24 45-7 14-13 21-13 15 0-5-5-2-11 8-5 9-17 17-25 17h-14l-18 38c-9 20-20 39-23 42s-11 15-18 27l-12 23h-29v14c0 7-6 25-13 40l-14 26-6-7-7-6v20c0 11-8 35-17 54l-18 34 2 207 1 206 12 59c7 32 15 63 19 68 4 6 13 23 19 38l12 28-21-6-21-7 11 21c7 12 9 21 6 21s0 10 6 23l12 22-28-25-28-25 7 20c4 11 10 38 12 59 2 22 11 50 19 62 8 13 15 31 15 41s9 32 20 48c12 17 28 45 37 63 9 19 27 41 41 50l25 16 131 4 131 4 7 11 7 11 58-12 58-12 12 16 12 16-6 16-6 17 21-19 21-18 16 5 15 6v28l1 28 14-33 15-34 17 4zm528 48 6-10-15 6c-18 7-21 14-7 14 6 0 13-4 16-10zm40-28c-3-3-11 0-18 7l-12 12 18-7c10-3 15-9 12-12zm215-56c0-12-5-7-19 24l-12 25 15-19c9-11 16-24 16-30zm-130 3v-10l-10 6c-5 3-10 11-10 16v10l10-6c6-3 10-11 10-16zm70-2055c0-2-9 0-20 6s-20 13-20 16c0 2 9 0 20-6s20-13 20-16zm-580 1545c-52-11-95-21-96-22s0-14 3-29l5-26 22-6 21-5 40 10c22 6 71 17 110 24l69 15 48-25 48-25v29l-32 24c-48 36-94 57-120 56-13 0-66-9-118-20zm-658-5c-34-17-92-77-92-95v-10l13 7c6 4 19 13 27 19 8 7 31 18 50 24l36 11 44-9c25-5 73-16 108-24l62-14 27-24 27-24-14 20c-8 11-21 24-28 28l-13 8 26 21 27 21-14 12-13 12-70 11c-38 7-92 14-120 17l-50 6-33-17zm572-106-19-23 23 19c21 18 27 26 19 26-2 0-12-10-23-22zm78 12c-30-13-92-63-92-75v-10l8 10c10 16 63 55 73 55h8l-5-14-6-14 22-22 21-21 22 3 22 3 16 32 16 32 18-13 18-13-6-17-6-16h7c4 0 15 7 24 14l18 13-18 16c-43 39-114 55-160 37zm58-30v-9l-15 5c-8 4-15 8-15 10s7 4 15 4 15-4 15-10zm-671 13-14-18 18 14c9 7 17 15 17 17 0 8-8 3-21-13zm30-6-34-23v-29l17-3 18-3-6 15-6 14 21 11c26 14 31 14 31-2 0-8 9-22 19-31l19-17 29 3 28 3 10 32 11 33 28-28 28-27-13 21c-7 12-25 29-40 38l-27 16h-99l-34-23zm106-7 6-10h-32l6 10c3 6 8 10 10 10s7-4 10-10zm625 26c0-2 8-10 18-17l17-14-14 18c-13 16-21 21-21 13zm-480-355c0-5 12-11 27-14l28-5-20 14c-22 16-35 18-35 5zm155-11-6-10 33 7c44 8 48 13 10 13h-31l-6-10zm-19-58c-3-3-31-7-62-8l-57-3-53-36c-30-19-54-40-54-46v-10l-10 6-9 6-29-15c-16-8-34-22-41-30-7-9-17-13-22-11l-8 6-9-18c-5-10-8-27-6-38s6-41 10-68l7-47 13 11c7 6 16 24 19 40l7 30 26 25c26 25 78 53 113 59 9 2 30 10 46 18 15 8 40 17 56 21l27 6v22l25-16c14-9 29-14 34-12 5 3 19-3 32-13 19-15 59-29 99-36 3 0 14-5 24-12l19-11-23-7-23-7 13-8 13-8 23 8 22 9 15-17c8-9 17-30 21-46 4-15 13-35 21-42l14-14 4 17c3 10 8 36 11 58l7 40-11-15-11-15 3 39 3 39-40 23c-22 13-55 31-72 38-18 8-33 19-33 23 0 17-142 78-154 65zm-168-189c7-3 16-2 19 1 4 3-2 6-13 5l-19-1 13-5zm-78-13-15-10 15 1c8 0 24 4 35 9l20 9h-20c-11 0-27-4-35-9zm-469 290c0-8 6-42 14-75l13-60 1 30c0 17-6 50-13 75-8 25-15 38-15 30zm29-154c0-2 8-10 18-17l17-14-14 18c-13 16-21 21-21 13zm1041-891c-33-38-71-106-71-127v-13l25 37c14 20 25 41 25 47 0 5 12 19 28 31 15 12 27 25 27 28 0 4 4 13 8 20l8 12h-9c-6 0-24-16-41-35zm-123-2c7-3 16-2 19 1 4 3-2 6-13 5l-19-1 13-5zm-95-10c15-2 39-2 55 0l27 4h-110l28-4zm-19-52c-2-2-4-15-4-28v-23h14c11 0 46 40 46 52 0 5-51 3-56-1zm81-32c-4-6-5-12-2-15 2-3 7 2 10 11 7 17 1 20-8 4zm-103-61-12-12v-56l25-12 25-11 25 11 25 12v15c0 19-44 65-63 65-7 0-18-5-25-12zm193-63c-5-2-22-6-36-9l-26-6 11-44c15-60 22-64 31-20 3 20 13 48 22 60 8 13 14 24 12 23-2 0-8-2-14-4z"/></g><g fill="#221a26" transform="matrix(.1 0 0 -.1 0 300)"><path d="m1245 2963-30-5 20-8 19-7-84-30-85-31-6 10-6 10-32-16c-17-9-31-19-31-22 0-2 14 2 30 11l30 16v-10c0-6-12-17-27-25-16-8-55-43-88-77-95-101-201-180-133-100 12 14-2 3-30-25l-51-51-5 14-6 14 12-7 11-7-7 12-8 12-33-38-33-38 11-6 10-7-20-33-20-34 4-20 3-20-11 25-12 25-13-40c-7-22-12-51-12-65v-25l10 38c6 20 14 37 18 37h8l-16-50-16-50-7 12-8 12-3-100c-3-103-1-123 9-86 3 12 10 22 15 22h10l-7-17c-3-10-11-40-16-67s-21-74-35-103l-25-54 4-37 4-37 1 38 2 37h18l7-47c4-27 9-61 10-78 2-16 24-75 50-130s53-116 60-135l13-35-1 45-2 45 22 3 22 3 5-23c3-13 10-84 16-160 6-75 15-151 21-170 6-18 13-39 15-47l5-14 11 11 11 11-8 18c-5 10-7 24-6 31s-4 15-11 17l-13 5-3 128-3 127-10 33-11 33 11 12 10 13 3 102 3 102h17l-6 15-5 15h22l-6 7-7 6 17 12 17 13-12 15-13 15 7 27 7 27-20-11-21-10 2 17c0 9 5 20 10 23l9 7-7 11-7 11-12-7-12-6 16 19c24 28 67 131 60 143-2 2 2 7 7 10 11 7 46 63 61 98 5 11 15 24 22 29 7 4 71 11 143 15 72 5 150 11 173 15l43 6 28-10 29-10 9 7c5 3 10 14 12 24l3 19-16 26-16 27 33-35c19-19 40-35 48-35h15l5 35 6 35 12-37 13-37 15 6 14 5v23c0 13 5 27 10 30l10 6v-50l15-15 15-15 28 4 27 3 24-15 24-15 7 12 8 12 4-12 4-13 27 7 28 7-5 7c-3 4 0 14 6 22l10 15-6-17-5-18 7-1c4-1 17-3 29-4s44-18 71-38 51-36 53-34c2 1-2-4-10-10l-15-13h22l7-30c4-16 17-46 31-65 13-20 19-33 13-30l-10 7 13-21c7-12 15-21 18-21s6-9 7-20l2-20-11 6-11 7 7-19c5-10 11-28 14-38l5-19-10 6-11 7 5-20 5-20 10 6c5 3 7 8 4 11-3 4 3 13 14 23l19 16-3 15c-5 25-48 113-65 133l-16 19 18-6c23-9 22 0-8 39-14 18-25 36-25 39v7l18-6 17-6-34 31-35 32 30-7c16-4 49-20 74-36 24-16 46-27 48-25 6 6-30 40-72 69l-39 26 54 1 54 2-40 6-40 6 18 8c26 10 75 9 98-3 10-6 19-8 19-6 0 11-60 36-87 37h-28l20 9 20 9h-15l-15 1 15 10 15 10h-29l20 15 19 14 30 1 30 1-18 10-19 11-30-6-30-6 12 15 12 15h-33l11 19c5 11 10 26 10 33v13l-10-15-10-15-1 65-2 65-7-55c-6-55-30-123-47-133l-9-6 13 76 13 76-25 55-25 54-31 32-30 31 25-50c14-27 28-67 32-87l6-38h-9c-5 0-10 7-10 15 0 20-54 135-64 135-4 0 4-26 17-57 13-32 23-67 23-78v-20l-24 58c-27 66-64 113-129 167l-47 39-82 27-82 28-110 2c-60 1-123 0-140-3zm135-13c0-5-6-10-14-10-7 0-36-17-63-37l-50-37-27-42c-15-23-25-46-24-51 1-4-22-32-52-61l-55-54 33 19c31 16 87 78 87 95 0 8 75 108 81 108 2 0-12-35-32-77l-35-78-27-29c-37-39-86-69-155-94l-58-22-71-7-71-6 7 12c4 6 22 17 39 25 42 17 139 97 162 133l18 28-52-50-51-49v11c0 7 3 14 8 17 4 2 23 26 41 53l34 48-57-62c-63-69-174-153-223-171l-33-11v8c0 5 10 11 23 15l22 5 145 143 145 143 90 33c74 28 170 56 208 61 4 1 7-3 7-9zm204-37c4-5 24-15 44-23 45-18 122-76 147-110l19-25-17 14c-9 7-17 10-17 6s-19 10-43 32l-42 39-73 23-73 24-52-10-52-10 41-2c44-1 134-29 180-56l29-16-30 6-30 5 35-30c19-16 38-30 43-30 4 0 7-4 7-9 0-6 16-37 35-70l36-61 6-49 5-48-9-18-10-17-6 46-7 46-25 50c-14 27-28 50-30 50-3 0 2-14 11-31 29-56 34-113 15-161-15-40-26-34-29 15-1 23-4 50-5 59-4 26-81 139-118 173l-32 30 42-55 41-55 12-37 11-37 7 4c8 5 20-28 20-52 0-25-19-12-29 20-6 17-22 46-35 62l-25 30 6-23c3-12 9-25 14-28s9-9 9-15v-9h-38l-12 29c-6 16-21 38-32 48l-21 18 20-40c12-22 24-55 28-72l7-33h-9c-4 1-18 22-30 48l-22 47-51 57-50 56-45 22c-25 12-45 24-45 27 0 18 180-37 214-66l19-16-5 15c-4 14-42 46-108 92l-25 18 29-10c39-14 44-6 7 10l-30 12-60-4-60-3 22 24c12 13 45 36 72 52l50 29h71c39 0 74-3 78-7zm-323-166-12-12 7 18c3 10 9 15 12 12s0-11-7-18zm655-151c-4-19-11-38-16-41l-10-6 1 43 1 43 8-25 8-25 1 29c1 16 4 27 7 23 4-3 3-22 0-41zm-606-62c0-3-13 4-30 16-16 12-30 24-30 26 0 3 14-4 30-16 17-12 30-24 30-26zm290-31v-23h21l-7-11-6-11-8 9c-4 4-11 26-14 48l-7 40 10-15c6-8 11-25 11-37zm333-74c-10-17-27-38-37-47l-19-17 8 15c11 19 59 80 63 80 2 0-5-14-15-31zm-1079-24 16-25h-9c-5 0-12 9-16 19l-6 20-22 4-22 4 21 2 22 1 16-25zm-167-53c-15-15-27-34-27-41v-13l18 7 17 6-10-9c-5-5-23-12-40-16l-30-6 18 10c9 6 17 16 17 22 0 12 49 68 59 68 2 0-7-13-22-28zm228 0c-3-3-11 0-18 7l-12 12 18-7c10-3 15-9 12-12zm-195-36c0-3-4-8-10-11l-10-6v10c0 6 5 11 10 11 6 0 10-2 10-4zm41-281 9 6-7-17-7-18-4 12-4 12-9-6-9-5v9c0 5 3 12 7 16l8 7 3-10 4-11 9 5zm469 842c-8-7-26-26-40-42l-25-30 43 40c38 35 47 46 40 45-2 0-10-6-18-13zm-91-104-14-18 18 14c9 7 17 15 17 17 0 8-8 3-21-13zm341 14c0-3 12-12 26-22l26-17-6 11c-7 11-46 35-46 28zm-305 153-20-9h15c8 0 22 4 30 9l15 10-10-1c-5 0-19-4-30-9zm-353-206-52-46 6-10 6-9 20 18c21 19 82 93 76 93-1 0-27-21-56-46zm-72-92v-14l15 12c8 7 15 13 15 15 0 1-7 2-15 2h-15v-15zm1351 1c0-4 24-26 52-47l52-39-25 27c-30 33-80 71-79 59zm-16-40c33-31 97-75 101-70 11 11-8 28-59 53-29 15-47 22-42 17zm112-75-18-10 18-15 18-15-17 6c-23 7-23 5 10-51 30-51 52-106 52-131v-15l-26 49c-28 53-74 117-80 112-2-2 13-37 32-77s32-76 29-79-5-1-5 5c0 12-61 105-66 100-2-2 11-32 30-68 18-35 37-77 41-94l6-30-29 30c-17 17-44 38-62 49l-33 19 42-44c23-23 47-51 52-62l10-18-58 45c-32 25-61 46-65 46-15 0-3-25 19-40 22-16 108-110 100-110-3 0-27 18-53 40-61 50-72 51-39 3 30-44 33-65 5-32l-19 24-1-17c0-9 5-20 10-23 6-3 10-16 10-28l-1-22-19 37c-11 20-24 39-29 42l-9 6 20-52 19-51-12-8-12-7 7-42 7-42-7-35-7-36-13 33-14 32-13-5-14-5 5 26 5 27-15-13-15-12-17 6-16 6 6-16c3-9 10-16 15-16 11 0 29-63 35-125l6-50 15-24 15-23-13 7-12 8 6-114c3-63 11-127 16-144l9-30 1 63 1 63 10 20 11 19h28l12-42 11-42-6-34c-3-19-3-32 0-29 14 13 34 120 40 213l7 103-8 18c-4 10-7 32-6 50l2 31-18 4-18 5 45 12c25 6 60 20 78 29l32 17 5 16c3 9 16 28 29 42s32 47 42 72l17 47-13 8-14 9-2 93-2 93-17 42-17 43-9-6-9-5v9c0 4-9 18-21 31-12 12-22 30-23 39-2 9-8 17-14 17s-14 4-19 9l-8 9 13-7 12-7v10c0 16-14 20-33 9zm43-83 13-24 10 6 10 6-7-11-7-12h10c6 0 11-5 11-12s7-32 16-55l17-43 8 6 9 5-11-28-10-28 8-2 8-3-3-50-4-50h-18l-1 48c0 26-3 60-5 76-6 34-49 139-71 173l-15 23h9c5 0 16-11 23-25zm97-287-5-13-1 19c-1 11 2 17 5 13 3-3 4-12 1-19zm-40-50-5-13v50l5-12c2-7 2-19 0-25zm45 2c-2-16-6-30-8-30s-4 14-4 30v30h17l-5-30zm-25-2-5-13-1 19c-1 11 2 17 5 13 3-3 4-12 1-19zm6-73c-3-9-8-14-10-11-3 3-2 9 2 15 9 16 15 13 8-4zm-266-407-5-13-1 19c-1 11 2 17 5 13 3-3 4-12 1-19zm-387 220c-14-4-42-10-62-13l-38-6v-14c0-7-3-20-6-28l-6-15 24-4c13-2 52 4 88 14 36 9 89 20 117 24l53 6 25-16c28-19 35-20 35-6 0 5-18 21-39 36l-39 25-64 3c-34 1-74-1-88-6zm-699-24c-18-14-36-35-42-46l-10-19 23 15c13 8 39 17 58 21l35 6 50-11c28-6 70-15 95-19l45-9 28 14 27 15v14c0 8-1 15-2 15-2 1-37 7-78 14l-75 13-5-6c-7-10-120-34-127-27-3 3 0 12 7 21 19 23 5 18-29-11zm284-84c10-11 20-20 23-20s-3 9-13 20-20 20-23 20 3-9 13-20zm-187-10c-20-11-40-25-44-31l-7-11 14-9c8-5 17-9 21-9h7l-5 14-6 15 27 17 27 17 7-12c5-7 10-11 12-10 2 2 17-6 32-16l28-18-13-8-13-9h11c16 0 31 21 36 52l5 27-14 5c-8 4-31 6-51 6l-37-1-37-19zm102-10c0-5-7-10-15-10s-15 5-15 10c0 6 7 10 15 10s15-4 15-10zm462 24-14-6 31-19c36-22 51-25 33-7-16 16-15 28 1 28h14l12-24 13-24-7-13-8-12 11 7 12 7v49h13c8 0 22-9 32-20s23-20 29-20h11l-27 27-27 27-58 3c-32 1-64 0-71-3zm-397-34c10-11 20-20 23-20s-3 9-13 20-20 20-23 20 3-9 13-20zm-514-206 1-19 5 13c3 7 2 16-1 19-3 4-6-2-5-13zm1322-109v-40l4 23c2 12 2 30 0 40l-5 17 1-40zm-725-12c7-3 16-2 19 1 4 3-2 6-13 5l-19-1 13-5zm170 0c6-2 18-2 25 0l12 5h-50l13-5zm-736-63v-25l5 13c2 6 2 18 0 25l-5 12v-25zm1279 4 1-19 5 13c3 7 2 16-1 19-3 4-6-2-5-13zm-639-34 10-31-17-20-18-19 6-7 7-6 20 18 20 18 19-17 20-18 11 7 11 7 14-12 13-11-4 18c-3 11-14 24-25 31l-19 12-1-12v-13l-9 23-9 22 5 15 6 15h-31l-10-17-10-18-1 17c0 9-4 19-10 23l-9 6 11-31zm618 3c0-5 5-15 10-23l10-15v45h-10c-5 0-10-3-10-7zm-653-42-6-24-17 7-16 6 6-15 6-16-11 6-10 7-14-12c-8-7-15-9-15-5s-6 2-14-4-18-10-22-9c-5 2-11-1-13-7l-3-10 33 3c18 2 43 8 55 13 27 10 58 53 52 71l-4 12-7-23zm644-11c0-8 3-21 8-28l8-14 6 17 7 16-9-6-9-5-5 17-5 18-1-15zm-461-50c0-5 7-10 16-10h15l-6 10c-3 6-10 10-16 10-5 0-9-4-9-10zm80-26c8-8 22-20 33-26l19-10-18 26c-11 14-25 26-33 26h-13l12-16zm-440-15c-14-6-32-8-41-6l-17 5-6-37c-3-20-6-47-5-61v-25l22 45 22 44 34 23c36 24 33 28-9 12zm800-5v-15l10 6 10 6-5 10c-9 14-15 11-15-7zm-1150-5v-10l10 6c6 3 10 8 10 11 0 2-4 4-10 4-5 0-10-5-10-11zm875-40c9-16 15-31 15-34-1-20 1-25 9-25 11 0 19 30 14 48l-5 12-11-7-10-6 6 15 6 16-19 5-19 5 14-29zm-859-33 6-53-11-7-11-7 6-11 7-11-10 6-10 6-27-49-27-50 6-21 7-22-10 7-10 6-6-16c-3-9-6-21-6-27v-12l10 15 10 15v-20c1-11 1-71 0-132l-1-113h31v-67l21-27 20-26-6-10c-3-6-20-17-36-26l-31-15 7-42c4-23 9-50 11-59l5-18h46l23 25c13 14 26 25 30 25 3 0 12-22 19-50 7-27 17-52 22-56l9-5v-48c0-39-14-105-26-119-1-2-13 2-26 9l-23 12 19-21 18-21-6-17-6-17 14 12 14 12 4-11 3-11 128 3 129 3-36 47c-20 26-36 52-36 57 0 6-5 11-11 11h-10l7 11 6 11 11-11c6-6 18-11 26-11h15l-42 40-42 41v30l-7-4-8-5-2 57-3 56-10 3c-5 2-10 10-10 18s-4 14-10 14c-5 0-13 12-16 27-4 16-10 33-14 38-10 13-22 61-26 105l-4 35 22-30c31-42 79-87 117-108 49-28 36-12-19 23l-49 32-31 46c-17 25-37 68-45 95l-14 49 14 35c8 20 15 51 15 70v35l16-13c8-7 22-26 31-42 35-68 189-202 245-212 10-2 22-6 27-9 5-4 35-8 68-11l58-5 80 26c44 15 103 39 132 55l51 29 80 85 81 85 6-58 7-57 25-27 26-27-6-53-6-53 10 20 9 20-6-30c-4-16-7-48-9-70-1-22-6-52-10-67l-7-28h9c6 0 15 10 21 22l11 23v-16c1-9-12-53-29-99l-30-83v-36l1-36 14-25c8-14 15-38 15-55 0-16 3-40 6-52l6-23h80l31 23c38 26 103 57 123 57h14l10 24c4 13 21 33 35 45l27 21 9-6 9-5 22 15c12 9 27 16 33 16 5 0-5-9-23-20s-37-18-41-16c-4 3-18-2-30-10l-22-16 33-30 33-30-32 21-32 21-6-10-6-10h9c5 0 35-21 66-46l55-46 13 4 13 5 26 114c25 109 28 139 10 110l-8-13-6 16-6 16h-15c-13 0-75 34-218 119l-28 16v27l25-16c55-36 119-66 141-66 28 0 30 7 7 34l-17 21 24-23 25-23-16-12-16-12 63-31 64-30 24 75c28 84 57 195 59 223l1 18h13c7 0 13 5 13 10v11l28-15c15-7 42-17 60-21s31-9 28-12-29 2-57 11l-52 17-7-8c-9-9-68-245-60-237 3 3 13 29 22 57l17 52-5-38c-2-21-15-78-28-125-29-107-60-262-53-269 6-6 19 39 42 152 9 44 23 107 31 140 7 33 19 101 25 150 6 50 15 94 20 100l9 9v-59l-1-60-19-85c-32-137-70-317-70-334V0h389l4 33 4 32 3-35 2-35 8 30 8 30 1-27 1-27 38 1 37 1 7 11 8 11V0h71l-2 193-2 192-25 30c-13 16-44 45-68 63l-44 34-15-6-16-6 6 9 5 9-49 17c-27 9-106 31-175 50l-126 33 7-11 6-10-17 6-17 7 6-10 6-10-15 6-16 6 6 9 5 9-16-6-15-6 6 16 6 16h-11c-6 0-30 17-52 38-23 20-45 36-48 34s-7 2-9 10l-4 13 11-15c6-8 11-11 11-7 0 11-87 124-103 133l-12 8 15-19 15-19-13 8c-7 4-17 19-22 32l-9 23-53 27c-29 15-80 49-113 77-33 27-65 52-72 54l-12 5 5 31 4 32-11-25c-6-14-16-34-22-45s-18-33-26-50c-9-16-19-32-22-35s-8-13-12-23l-7-18-10 6-10 6v-60l-10-6-10-6 6-11 7-11-11 7-12 7v-10c0-19-20-12-21 7v17l-11-25-10-25-7 20-8 19-6-54-7-54-15-15-16-16-9 15-10 15v-11c0-6-21-33-46-60l-45-49 6 23 6 22-6 20-6 20-15-14c-8-8-14-21-14-30 0-8-4-18-10-21l-10-6v8c0 4-4 15-9 22l-10 15-18-23-19-23 4 39 4 38-21 19-21 19v-63h-22l2 28c1 15 2 41 1 58l-1 30-19 21c-11 12-18 23-16 25 3 2 0 20-5 40l-10 36-15 6-15 5v-20c0-11-7-27-15-35l-14-15 5-14 6-15 10 7 11 6-7-29c-4-16-13-53-19-82l-11-52-13 4-13 5v-18l-17 6-16 6 6-16 6-17h-18l-7 36-7 36-8-14-9-13v49l-12-12c-7-7-16-12-20-12-13 0-9 28 5 33l12 4-7 8-7 7-32-23-32-23 6 25 6 24-9 15-9 14-7-17-6-17-9 6c-5 3-9 14-9 24v19l-20-4c-11-2-24-7-30-10l-9-6 5-13 5-13-16-13-15-12 6 31 7 32-17 18-17 19 6 28 6 29-11-17c-6-10-15-18-20-18h-10v60h-10c-5 0-10-5-10-11v-10l-9 5-8 6 5 25 4 25-16-6-16-6-1 23-1 24-8-25c-9-28-10-27-16 15-3 16-9 34-14 40-4 5-11 27-15 48l-7 37h-18l6-54zm1095-73c-11-21-20-35-21-31 0 12 33 78 38 74 2-2-6-21-17-43zm218-226 1-8-10 6c-5 3-10 16-9 28v22l9-20c5-11 9-24 9-28zm81 20 25-4-26-2-27-1-13 18-14 17 15-12c8-6 26-13 40-16zm-40-47 15-10-10 1c-5 0-19 4-30 9l-20 9h15c8 0 22-4 30-9zm57-42c37-22 70-48 60-48-3 0-29 16-58 35-60 39-61 47-2 13zm133-75v-13l25-6 25-6v-28l-34 18-33 17v49l-12 4c-6 2-11 11-11 20v17l20-30c11-16 20-36 20-42zm-956 12c-4-8-8-15-10-15s-4 7-4 15 4 15 10 15h9l-5-15zm891-15-7-12-29 6c-16 3-36 3-44 0l-15-6 6-10c3-5 41-26 85-47l79-37-16-20-15-19 5 20 5 20-79 35-80 35v12c0 7 9 17 19 23l19 10 31-6 31-6v12c0 8 3 11 6 7 3-3 3-11-1-17zm-835-10c-8-5-22-9-30-9h-15l20 9c11 5 25 9 30 9l10 1-15-10zm-67-15c-3-9-8-14-10-11-3 3-2 9 2 15 9 16 15 13 8-4zm1014-82-5-18v70l5-17c2-10 2-26 0-35zm246 40c-7-2-19-2-25 0l-13 5h50l-12-5zm-756-25-5-13-1 19c-1 11 2 17 5 13 3-3 4-12 1-19zm701-13c7-7-33-6-52 1-9 3-16 10-16 14v9l31-9c18-5 34-12 37-15zm46 16 6-9-25 3c-14 1-29 5-32 9l-6 6h26c14 0 28-4 31-9zm60-36 23-25 59-11c32-6 71-18 87-26 43-22 43-9 0 27l-38 32 20-10c11-6 31-21 44-35l23-26-8-12-7-12 16 6 16 6 8-12c7-12 13-37 9-37-2 0-23 11-47 24l-44 24 2 10 3 11-38 11c-20 5-44 10-53 10-19 0-146 44-156 53l-7 7 35-6 34-6-15 11-15 11h13c7 0 23-11 36-25zm-307-42-5-18v60l5-12c2-7 2-21 0-30zm253 17v-10l-27 1-28 1 25 8c14 4 26 8 28 9 1 1 2-3 2-9zm45-10c3-5 15-10 26-10h19l-1-17-1-18-5 13c-2 6-10 12-16 12-7 0-21 7-31 15l-20 15h11c7 0 15-4 18-10zm-482-50 5-20-9 6c-5 3-9 12-9 20 0 20 7 17 13-6zm555-55c-3-3-9 2-12 12l-7 18 12-12c7-7 10-15 7-18zm83-8-12-12 7 18c3 10 9 15 12 12s0-11-7-18zm-504-59-5-13-1 19c-1 11 2 17 5 13 3-3 4-12 1-19zm483-27c0-11-4-22-9-26l-9-5 3-38 4-37-9 20-9 20v-19c-1-11-3-17-6-14-7 7 18 118 27 118 4 0 8-9 8-19zm27-3-5-13-1 19c-1 11 2 17 5 13 3-3 4-12 1-19zm-860-20-5-13-1 19c-1 11 2 17 5 13 3-3 4-12 1-19zm740-30-5-13-1 19c-1 11 2 17 5 13 3-3 4-12 1-19zM991 195l9 6-6-15c-3-9-10-16-14-16-11 0-20 27-12 35l7 6 3-10 4-11 9 5zm1572-25c-3-12-8-19-11-16-5 6 5 36 12 36 2 0 2-9-1-20zm184-12-5-13v50l5-12c2-7 2-19 0-25zm20 10-5-13-1 19c-1 11 2 17 5 13 3-3 4-12 1-19zm165 0c-5-7-12-22-15-33l-5-20-1 21c0 11 4 25 11 32 16 16 23 15 10 0zm-1913-41 1-8-10 6c-5 3-10 16-9 28v22l9-20c5-11 9-24 9-28zm1788 21-5-13-1 19c-1 11 2 17 5 13 3-3 4-12 1-19zM961 93c-34-54-42-53-10 1l21 35-6 10-6 9 12 5c23 8 20-11-11-60zm1875-27-4-11-1 20-1 20-11-15-11-15 6 18c3 10 6 31 7 45l1 27 9-39c5-22 7-44 5-50zm-89 52-5-13-1 19c-1 11 2 17 5 13 3-3 4-12 1-19zm100 0-5-13-1 19c-1 11 2 17 5 13 3-3 4-12 1-19zM1029 99l-24-18 7-6 6-6 19 12 20 12 29-12 29-11-32 6-33 6-26-21c-50-40-62-17-15 29l29 29-7 7c-3 4 0 4 8-1l14-8-24-18zm1838-21-5-13v50l5-12c2-7 2-19 0-25zm40 10-5-13-1 19c-1 11 2 17 5 13 3-3 4-12 1-19zm-110-10-5-13-1 19c-1 11 2 17 5 13 3-3 4-12 1-19zm140-20-5-13-1 19c-1 11 2 17 5 13 3-3 4-12 1-19zm-40-10-5-13-1 19c-1 11 2 17 5 13 3-3 4-12 1-19zm-1762-8c10-11 16-20 13-20s-13 9-23 20-16 20-13 20 13-9 23-20zm1662-22-5-13v50l5-12c2-7 2-19 0-25zm60 0-5-13-1 19c-1 11 2 17 5 13 3-3 4-12 1-19zm43 398c0-2 7-7 16-10l15-6-6 10c-6 10-25 14-25 6zM1466 924c-8-22-8-59 2-68 4-4 7-19 7-33v-26l18-3 17-2v11c0 7-3 22-6 35l-6 22h-27l4 40c5 42 1 51-9 24zM530 649c-102-38-187-69-190-69s1-4 8-9l14-8-21-6-21-5 5 8c3 5-15-3-40-16l-45-26 6-10 7-11-11 7-11 7-97-49-97-49 16-6 17-6v9c0 6 7 10 16 10h15l-15-15c-8-8-24-15-35-15H30v21l-9-6-9-5-2-200L9 0h361l-20 37c-11 21-20 42-20 48 0 5 11-10 24-35l22-45 65-2 64-2-65 32c-36 18-70 36-77 40l-12 7 11 33c6 17 38 67 71 110l60 77 25-22 25-23-8 15c-4 8-14 22-21 30l-13 16 41 59c74 106 118 184 148 262 16 42 29 78 27 79-1 1-85-29-187-67zm40-59 15-10h-17c-9 0-20 5-23 10l-6 10h8c4 0 15-5 23-10zm-120-40c0-6-7-13-15-16l-16-6 18-15 18-14-24 12-25 12 17 12 17 12-7 6-6 7h11c7 0 12-5 12-10zm-49-45c0-5-5-11-13-13l-13-4 15 11 15 11h-17c-10 0-18-4-18-8s-9-8-20-8c-26 0-25 4 3 16 26 11 48 9 48-5zm-41-45c5-8 7-17 4-19-3-3-9 1-14 9l-8 14-76-2-76-2v15h81l80-1 9-14zm-200-6c-8-8-22-20-32-25l-18-10v8c0 4 12 15 28 25 35 21 37 21 22 2zm237-36-5-13v50l5-12c2-7 2-19 0-25zm65-23 5-24-8 5c-9 5-13 44-5 44 2 0 6-11 8-25zm-72-48v-10l-20 18c-11 10-20 23-20 28v10l20-18c11-10 20-23 20-28zm27-49-5-13-1 19c-1 11 2 17 5 13 3-3 4-12 1-19zm-17-91c0-2-10-12-21-23l-22-19 14 23c12 19 29 30 29 19zm-54-89c-18-26-22-17-5 14 6 11 13 17 16 15 3-3-2-16-11-29zm1526 388c-6-14-28-44-49-68l-38-42 32 24c17 14 37 35 44 47 6 12 15 21 18 19s7 7 7 20c2 30 0 30-14 0zm-718-100c11-9 24-16 30-16 12 0 7 5-24 19l-25 12 19-15zm134-53c7-3 16-2 19 1 4 3-2 6-13 5l-19-1 13-5zm280 0c7-3 16-2 19 1 4 3-2 6-13 5l-19-1 13-5zm-978-67c35-36 69-66 74-66 13 0-106 124-124 128l-15 4 65-66zm748 57c7-3 16-2 19 1 4 3-2 6-13 5l-19-1 13-5zm169-30c-4-3-7-10-7-15v-9l9 5 8 6-10-48c-17-73-13-237 5-248l8-5v12c0 6-5 40-12 75l-11 63 21 75c12 41 22 79 22 85 0 12-23 15-33 4zm-797-42v-19l68-58c37-32 58-47 47-34-12 14-36 49-55 77l-35 53h-25v-19zm1682-53c-27-93-46-192-39-210l4-13 8 50c4 28 18 92 32 143 29 111 25 134-5 30zm-858-22c-3-8-4-25-2-38l3-23 43-3 42-3v21c0 12-5 30-10 41l-11 19h-60l-5-14zM532 160c7-11 17-20 23-20s22-11 36-24 35-27 47-30l22-7v9c0 14-104 92-124 92h-16l12-20zM2060 32l-55-27 38-3 39-3 24 16 24 15v15c0 19-4 18-70-13z"/></g></g></svg>